# xmcd
#
# Track frame offsets: 
#        150
#        12041
#        22911
#        33507
#        42475
#        57619
#        66703
#        76724
#        87683
#        98916
#        107283
#
# Disc length: 1578 seconds
#
# Revision: 0
# Processed by: cddbd v1.5.2PL0 Copyright (c) Steve Scherf et al.
# Submitted via: ExactAudioCopyFreeDBPlugin 1.0
#
DISCID=8906280b
DTITLE=Various Artist - World's Greatest Bluegrass Bands Vol. 1
DYEAR=2005
DGENRE=Bluegrass
TTITLE0=Osborne Brothers - Georgia Mules and Country Boys
TTITLE1=Joe Maphis - Orange Blossom Special
TTITLE2=Josh Graves - Little Maggie
TTITLE3=Carl Story - Buck Creek
TTITLE4=Benny Martin - Wabash Cannonball
TTITLE5=Lester Flatt - Dixie Flyer
TTITLE6=Mac Wiseman - The Wreck of the Old 97
TTITLE7=Benny Martin - Muleskinner Blues
TTITLE8=Don Reno and Bill Harrell - Long Gone
TTITLE9=Carl Story - I'm Rollin' On
TTITLE10=Lester Flatt - Goin' Up Cripple Creek
EXTD=
EXTT0=
EXTT1=
EXTT2=
EXTT3=
EXTT4=
EXTT5=
EXTT6=
EXTT7=
EXTT8=
EXTT9=
EXTT10=
PLAYORDER=
